<svg id="Layer_1" data-name="Layer 1" xmlns="http://www.w3.org/2000/svg" xmlns:xlink="http://www.w3.org/1999/xlink" viewBox="0 0 166.57 271.63"><defs><style>.cls-1{fill:none;}.cls-2{fill:#1a1a1a;}.cls-3{clip-path:url(#clip-path);}.cls-4{fill:#a81d3e;}.cls-5{fill:#aa3063;}.cls-6{fill:#9b1d47;}.cls-7{fill:#8d1e38;}.cls-8{fill:#863a76;}.cls-9{fill:#895087;}.cls-10{fill:#a81c3f;}.cls-11{fill:#9a1d47;}.cls-12{fill:#9c1d47;}.cls-13{fill:#7f4e86;}.cls-14{fill:#352865;}.cls-15{fill:#015f77;}.cls-16{fill:#5d8ea7;}.cls-17{fill:#a71c41;}.cls-18{fill:#ad1e2b;}.cls-19{fill:#9c1d46;}.cls-20{clip-path:url(#clip-path-2);}.cls-21{fill:#3c81a5;}.cls-22{fill:#3489b4;}.cls-23{fill:#115e8a;}.cls-24{fill:#a96792;}.cls-25{fill:#6799b2;}.cls-26{fill:#3b70a1;}.cls-27{fill:#592775;}.cls-28{fill:#4f788e;}.cls-29{fill:#679eab;}.cls-30{fill:#5e689b;}.cls-31{fill:#5ca0c3;}.cls-32{fill:#5e8ca8;}.cls-33{clip-path:url(#clip-path-3);}.cls-34{fill:#553a7e;}.cls-35{fill:#146188;}.cls-36{fill:#692571;}.cls-37{fill:#985c8c;}.cls-38{fill:#895287;}.cls-39{fill:#38276b;}.cls-40{fill:#9d5d8e;}.cls-41{fill:#4d256d;}.cls-42{fill:#53809a;}.cls-43{fill:#70adb8;}.cls-44{fill:#662372;}</style><clipPath id="clip-path" transform="translate(-50.94 -2.47)"><path class="cls-1" d="M189.57,156c7.47,0,8.86,4.71,3.12,10.53L170.3,189.19c-5.74,5.82-16.44,10.53-23.91,10.53H104c-7.47,0-8.86-4.71-3.12-10.53l22.39-22.67C129,160.7,139.73,156,147.2,156Z"/></clipPath><clipPath id="clip-path-2" transform="translate(-50.94 -2.47)"><path class="cls-1" d="M87.24,101.58c0,7.46,4.71,8.86,10.53,3.12l22.67-22.4C126.26,76.56,131,65.86,131,58.4V16c0-7.46-4.71-8.86-10.53-3.11L97.77,35.29C92,41,87.24,51.73,87.24,59.2Z"/></clipPath><clipPath id="clip-path-3" transform="translate(-50.94 -2.47)"><path class="cls-1" d="M87.24,179.82c0,7.47,4.71,8.86,10.53,3.12l22.67-22.38c5.82-5.75,10.53-16.45,10.53-23.91V94.27c0-7.47-4.71-8.87-10.53-3.12L97.77,113.53C92,119.28,87.24,130,87.24,137.44Z"/></clipPath></defs><path class="cls-2" d="M78.45,218.47h5.28V242h22.81v5.28H78.45Z" transform="translate(-50.94 -2.47)"/><path class="cls-2" d="M132.88,218.5a5.53,5.53,0,0,1,2.19.44,6.07,6.07,0,0,1,1.78,1.18,5.44,5.44,0,0,1,1.2,1.77,5.51,5.51,0,0,1,.44,2.18v23.25h-5.33v-9.69H115v9.69h-5.28V224.07a5.63,5.63,0,0,1,1.62-3.95,5.72,5.72,0,0,1,1.76-1.18,5.51,5.51,0,0,1,2.18-.44Zm.28,13.85v-8.28a.24.24,0,0,0-.28-.28H115.23a.25.25,0,0,0-.28.28v8.28Z" transform="translate(-50.94 -2.47)"/><path class="cls-2" d="M166.23,218.5a5.48,5.48,0,0,1,2.15.44,6.07,6.07,0,0,1,1.78,1.18,5.77,5.77,0,0,1,1.2,1.77,5.51,5.51,0,0,1,.44,2.18v17.69a5.48,5.48,0,0,1-.44,2.18,5.65,5.65,0,0,1-1.2,1.77,6.07,6.07,0,0,1-1.78,1.18,5.47,5.47,0,0,1-2.15.43H148.54a5.51,5.51,0,0,1-2.18-.43,5.9,5.9,0,0,1-1.77-1.18,5.77,5.77,0,0,1-1.18-1.77,5.47,5.47,0,0,1-.43-2.18V224.07a5.51,5.51,0,0,1,.43-2.18,5.42,5.42,0,0,1,3-2.95,5.51,5.51,0,0,1,2.18-.44Zm0,23.54c.16,0,.24-.09.24-.28V224.07c0-.19-.08-.28-.24-.28H148.54a.24.24,0,0,0-.28.28v17.69a.24.24,0,0,0,.28.28Z" transform="translate(-50.94 -2.47)"/><path class="cls-2" d="M199.7,218.5H205v28.82h-5.76l-17.78-21.13v21.13H176.2V218.5H182l17.73,21.14Z" transform="translate(-50.94 -2.47)"/><path class="cls-2" d="M89.18,262.87H87.81v-.14a.58.58,0,0,0-.19-.45.61.61,0,0,0-.45-.19H81.42a.61.61,0,0,0-.45.19.62.62,0,0,0-.19.45v1.47a.67.67,0,0,0,.64.65h5.75A2.08,2.08,0,0,1,88,265,2,2,0,0,1,89,266.06a1.88,1.88,0,0,1,.16.78v1.46a1.85,1.85,0,0,1-.16.78,1.76,1.76,0,0,1-.43.64,2.06,2.06,0,0,1-.64.43,1.91,1.91,0,0,1-.78.16H81.42a1.83,1.83,0,0,1-.77-.16,2.13,2.13,0,0,1-.63-.43,1.76,1.76,0,0,1-.43-.64,1.85,1.85,0,0,1-.16-.78v-.12h1.35v.12a.66.66,0,0,0,.19.46.62.62,0,0,0,.45.2h5.75a.67.67,0,0,0,.64-.66v-1.46a.62.62,0,0,0-.19-.46.64.64,0,0,0-.45-.18H81.42a1.83,1.83,0,0,1-.77-.16,2.13,2.13,0,0,1-.63-.43,1.81,1.81,0,0,1-.43-.63,1.88,1.88,0,0,1-.16-.78v-1.47a1.83,1.83,0,0,1,.16-.77,1.85,1.85,0,0,1,.43-.64,1.93,1.93,0,0,1,.63-.42,1.83,1.83,0,0,1,.77-.16h5.75a1.91,1.91,0,0,1,.78.16,1.87,1.87,0,0,1,.64.42A1.85,1.85,0,0,1,89,262a1.83,1.83,0,0,1,.16.77Z" transform="translate(-50.94 -2.47)"/><path class="cls-2" d="M111.32,262.09v6.21a.62.62,0,0,0,.19.46.59.59,0,0,0,.45.2h3.5v1.35H112a1.86,1.86,0,0,1-.79-.16,2.13,2.13,0,0,1-.63-.43,2.22,2.22,0,0,1-.42-.64,2,2,0,0,1-.15-.78V257.6h1.35v3.14h4.14v1.35Z" transform="translate(-50.94 -2.47)"/><path class="cls-2" d="M143.56,260.74a1.92,1.92,0,0,1,.79.16,1.87,1.87,0,0,1,.64.42,2,2,0,0,1,.43.64,1.83,1.83,0,0,1,.16.77v5.57a1.85,1.85,0,0,1-.16.78,1.9,1.9,0,0,1-.43.64,2.06,2.06,0,0,1-.64.43,1.92,1.92,0,0,1-.79.16h-5.73a1.85,1.85,0,0,1-.78-.16,2.32,2.32,0,0,1-.64-.43,2.06,2.06,0,0,1-.43-.64,2,2,0,0,1-.15-.78v-5.57A2,2,0,0,1,136,262a2.18,2.18,0,0,1,.43-.64,2.09,2.09,0,0,1,.64-.42,1.85,1.85,0,0,1,.78-.16Zm-5.73,1.35a.65.65,0,0,0-.65.64v5.57a.66.66,0,0,0,.19.46.63.63,0,0,0,.46.2h5.73a.62.62,0,0,0,.47-.2.65.65,0,0,0,.18-.46v-5.57a.63.63,0,0,0-.65-.64Z" transform="translate(-50.94 -2.47)"/><path class="cls-2" d="M173.77,260.74v1.35h-5.38a.61.61,0,0,0-.45.19.58.58,0,0,0-.19.45v7.58H166.4v-7.58a1.95,1.95,0,0,1,1.22-1.83,1.83,1.83,0,0,1,.77-.16Z" transform="translate(-50.94 -2.47)"/><path class="cls-2" d="M203.55,272.08a2.11,2.11,0,0,1-.16.8,2.31,2.31,0,0,1-.42.63,2.06,2.06,0,0,1-.64.43,1.85,1.85,0,0,1-.78.16h-6v-1.37h6a.65.65,0,0,0,.64-.65v-1.77h-6.38a1.88,1.88,0,0,1-.78-.16,2.13,2.13,0,0,1-.63-.43,1.9,1.9,0,0,1-.43-.64,2,2,0,0,1-.16-.78v-7.53h1.36v7.53a.65.65,0,0,0,.18.46.63.63,0,0,0,.46.2h5.74a.59.59,0,0,0,.45-.2.62.62,0,0,0,.19-.46v-7.53h1.36Z" transform="translate(-50.94 -2.47)"/><g class="cls-3"><polygon class="cls-4" points="134.06 158.1 111.2 182.27 107.89 148.29 134.06 158.1"/><polygon class="cls-5" points="86.3 176.46 111.2 182.27 107.89 148.29 86.3 176.46"/><polygon class="cls-6" points="86.3 176.46 76.8 147.4 107.89 148.29 86.3 176.46"/><polyline class="cls-5" points="76.8 147.4 56.72 167.85 86.3 176.46"/><polygon class="cls-7" points="86.3 176.46 111.2 182.27 80.18 203.58 86.3 176.46"/><polygon class="cls-5" points="86.3 176.46 61.19 189.03 80.18 203.58 86.3 176.46"/><polygon class="cls-8" points="86.3 176.46 61.19 189.03 57.31 167.51 86.3 176.46"/><polygon class="cls-9" points="37.63 185.27 61.19 189.03 57.31 167.51 37.63 185.27"/><polygon class="cls-10" points="46.79 211.29 61.19 189.03 80.18 203.58 46.79 211.29"/><polygon class="cls-11" points="46.79 211.29 61.19 189.03 37.63 185.27 46.79 211.29"/><polygon class="cls-12" points="104.33 217.6 111.2 182.27 80.18 203.58 104.33 217.6"/><polygon class="cls-13" points="104.33 217.6 67.51 232.96 80.18 203.58 104.33 217.6"/><polygon class="cls-14" points="46.79 211.29 67.51 232.96 80.18 203.58 46.79 211.29"/><polygon class="cls-5" points="134.06 158.1 132.35 123.72 107.89 148.29 134.06 158.1"/><polygon class="cls-15" points="101.83 120.08 132.35 123.72 107.89 148.29 101.83 120.08"/><polygon class="cls-16" points="101.83 120.08 76.8 147.4 107.89 148.29 101.83 120.08"/><polygon class="cls-17" points="134.06 158.1 132.35 123.72 156.7 146.41 134.06 158.1"/><polygon class="cls-18" points="111.2 182.27 134.06 158.1 130.66 202.04 111.2 182.27"/><polygon class="cls-7" points="111.2 182.27 104.16 217.24 130.66 202.04 111.2 182.27"/><polygon class="cls-19" points="160.59 177.75 134.06 158.1 130.66 202.04 160.59 177.75"/><polygon class="cls-5" points="134.06 158.1 160.59 177.75 166.57 141.15 134.06 158.1"/></g><g class="cls-20"><polygon class="cls-21" points="88.87 28.05 62.49 45.3 93.63 54.11 88.87 28.05"/><polygon class="cls-22" points="63.73 69.51 62.49 45.3 93.63 54.11 63.73 69.51"/><polygon class="cls-23" points="63.73 69.51 89.23 83.24 93.63 54.11 63.73 69.51"/><polyline class="cls-24" points="89.23 83.24 66.78 98.54 63.73 69.51"/><polygon class="cls-25" points="63.73 69.51 62.49 45.3 37.41 70.67 63.73 69.51"/><polygon class="cls-26" points="63.73 69.51 47.79 90.81 37.41 70.67 63.73 69.51"/><polygon class="cls-23" points="63.73 69.51 47.79 90.81 67.21 98.04 63.73 69.51"/><polygon class="cls-27" points="47.34 113.41 47.79 90.81 67.21 98.04 47.34 113.41"/><polygon class="cls-27" points="24.61 100.5 47.79 90.81 37.41 70.67 24.61 100.5"/><polygon class="cls-21" points="24.61 100.5 47.79 90.81 47.34 113.41 24.61 100.5"/><polygon class="cls-26" points="28.39 45.78 62.49 45.3 37.41 70.67 28.39 45.78"/><polygon class="cls-13" points="28.39 45.78 7.88 77.54 37.41 70.67 28.39 45.78"/><polygon class="cls-14" points="24.61 100.5 7.88 77.54 37.41 70.67 24.61 100.5"/><polygon class="cls-28" points="88.87 28.05 120.64 35.42 93.63 54.11 88.87 28.05"/><polygon class="cls-15" points="118.92 64.49 120.64 35.42 93.63 54.11 118.92 64.49"/><polygon class="cls-16" points="118.92 64.49 89.23 83.24 93.63 54.11 118.92 64.49"/><polygon class="cls-29" points="88.87 28.05 120.64 35.42 103.58 8.89 88.87 28.05"/><polygon class="cls-26" points="62.49 45.3 88.87 28.05 47.32 23.83 62.49 45.3"/><polygon class="cls-30" points="62.49 45.3 28.7 46.01 47.32 23.83 62.49 45.3"/><polygon class="cls-31" points="75 0 88.87 28.05 47.32 23.83 75 0"/><polygon class="cls-32" points="88.87 28.05 75 0 110.14 0.57 88.87 28.05"/></g><g class="cls-33"><polygon class="cls-34" points="38.15 162.18 63.16 139.32 28.61 135.37 38.15 162.18"/><polygon class="cls-35" points="57.67 113.86 63.16 139.32 28.61 135.37 57.67 113.86"/><polygon class="cls-30" points="57.67 113.86 28.25 103.69 28.61 135.37 57.67 113.86"/><polyline class="cls-34" points="28.25 103.69 49.42 83.6 57.67 113.86"/><polygon class="cls-36" points="57.67 113.86 63.16 139.32 85.38 108.1 57.67 113.86"/><polygon class="cls-37" points="57.67 113.86 70.9 88.51 85.38 108.1 57.67 113.86"/><polygon class="cls-38" points="57.67 113.86 70.9 88.51 49.07 84.2 57.67 113.86"/><polygon class="cls-39" points="67.48 64.47 70.9 88.51 49.07 84.2 67.48 64.47"/><polygon class="cls-8" points="93.81 74.24 70.9 88.51 85.38 108.1 93.81 74.24"/><polygon class="cls-40" points="95.4 78.46 70.9 88.51 67.48 64.47 95.4 78.46"/><polygon class="cls-41" points="99.24 132.94 63.16 139.32 85.38 108.1 99.24 132.94"/><polygon class="cls-13" points="99.24 132.94 115.52 95.72 85.38 108.1 99.24 132.94"/><polygon class="cls-14" points="93.81 74.24 115.52 95.72 85.38 108.1 93.81 74.24"/><polygon class="cls-42" points="38.15 162.18 3.17 159.84 28.61 135.37 38.15 162.18"/><polygon class="cls-15" points="0 128.7 3.17 159.84 28.61 135.37 0 128.7"/><polygon class="cls-16" points="0 128.7 28.25 103.69 28.61 135.37 0 128.7"/><polygon class="cls-43" points="38.15 162.18 3.17 159.84 25.86 185.03 38.15 162.18"/><polygon class="cls-44" points="63.16 139.32 38.15 162.18 82.95 159.48 63.16 139.32"/><polygon class="cls-9" points="63.16 139.32 98.88 132.75 82.95 159.48 63.16 139.32"/><polygon class="cls-6" points="57.7 189.53 38.15 162.18 82.95 159.48 57.7 189.53"/><polygon class="cls-38" points="38.15 162.18 57.7 189.53 20.33 194.98 38.15 162.18"/></g></svg>